<?xml version="1.0" standalone="no"?>
<!DOCTYPE svg PUBLIC "-//W3C//DTD SVG 20010904//EN"
 "http://www.w3.org/TR/2001/REC-SVG-20010904/DTD/svg10.dtd">
<svg version="1.0" xmlns="http://www.w3.org/2000/svg"
 width="1024.000000pt" height="1024.000000pt" viewBox="0 0 1024.000000 1024.000000"
 preserveAspectRatio="xMidYMid meet">
<metadata>
Created by potrace 1.16, written by Peter Selinger 2001-2019
</metadata>
<g transform="translate(0.000000,1024.000000) scale(0.100000,-0.100000)"
fill="#000000" stroke="none">
<path d="M0 5120 l0 -5120 5120 0 5120 0 0 5120 0 5120 -5120 0 -5120 0 0
-5120z m4460 3003 c159 -93 448 -266 655 -392 l100 -61 100 0 c357 0 819 -91
1190 -235 136 -52 395 -183 533 -267 281 -173 712 -530 712 -591 0 -12 16
-104 34 -204 l34 -183 78 -96 c407 -497 476 -586 606 -783 l89 -134 -33 -20
c-112 -69 -204 -82 -353 -47 -108 25 -166 25 -238 0 -31 -11 -63 -20 -71 -20
-8 0 -43 36 -77 79 -36 45 -70 78 -77 76 -7 -3 -10 0 -7 5 5 9 -54 92 -89 125
-6 6 -29 33 -50 60 -22 28 -61 73 -88 102 -26 28 -48 57 -48 62 0 6 -5 11 -11
11 -5 0 -7 -5 -3 -12 4 -7 3 -8 -5 -4 -6 4 -9 12 -6 17 4 5 1 9 -4 9 -6 0 -11
6 -11 13 0 18 -59 87 -73 84 -7 -1 -11 4 -10 10 2 7 0 12 -5 12 -18 -3 -26 2
-14 10 10 6 9 11 -4 22 -16 12 -17 12 -9 -1 8 -13 7 -13 -8 -1 -19 15 -23 26
-6 15 36 -22 -39 73 -131 165 -94 95 -191 211 -185 222 4 5 1 8 -6 7 -7 -2
-18 7 -24 20 -7 16 -19 22 -45 23 -19 1 -47 2 -62 3 -15 1 -25 -1 -23 -5 5 -7
-140 -1 -230 11 l-60 7 55 3 55 3 -75 7 c-119 13 -410 24 -410 16 0 -3 10 -10
23 -15 13 -5 123 -84 245 -176 l222 -166 153 -20 c83 -11 166 -24 182 -30 30
-9 101 -69 396 -334 222 -199 209 -182 259 -335 43 -131 46 -137 105 -195 34
-33 86 -73 116 -89 119 -64 150 -89 179 -146 44 -86 52 -125 30 -145 -10 -9
-46 -77 -81 -151 l-64 -135 -70 -34 c-76 -36 -454 -187 -577 -230 l-77 -27
-83 60 c-138 99 -210 142 -238 142 -20 0 -55 -26 -138 -100 -61 -54 -114 -105
-118 -111 -7 -12 -10 -12 142 11 l81 13 64 -43 c35 -24 105 -74 154 -110 50
-37 96 -70 103 -74 14 -8 398 132 597 219 72 31 138 59 147 62 13 4 25 -11 50
-59 44 -84 53 -109 41 -117 -6 -3 -20 -49 -33 -101 -13 -52 -34 -115 -48 -140
-24 -42 -186 -284 -215 -322 -18 -22 -100 -36 -302 -48 -93 -5 -213 -13 -265
-16 l-95 -6 -35 58 c-55 91 -277 307 -400 389 -116 78 -295 171 -346 181 -40
7 -86 -17 -196 -104 -286 -228 -501 -580 -636 -1042 -66 -225 -87 -327 -130
-625 l-7 -50 -44 65 c-349 514 -853 1029 -1314 1347 -62 42 -114 78 -116 80
-11 9 70 439 125 658 44 176 110 397 134 451 11 23 26 71 34 106 14 62 75 222
161 424 80 187 280 572 292 560 3 -2 -2 -56 -11 -118 -38 -283 -25 -623 34
-850 21 -79 357 -390 610 -563 l65 -45 115 11 c240 23 503 -1 772 -71 65 -16
121 -30 126 -30 6 0 41 24 78 54 99 78 181 190 435 601 34 55 81 130 104 166
l43 66 -43 34 c-24 19 -108 88 -186 155 -79 66 -173 142 -209 169 -36 27 -67
52 -70 55 -5 6 -60 53 -210 179 -106 89 -127 105 -150 121 -12 8 -39 32 -61
52 -21 20 -69 62 -106 93 -38 30 -104 86 -148 123 -195 163 -220 182 -232 182
-7 0 -29 19 -50 41 -42 46 -136 119 -153 119 -5 0 -10 4 -10 8 0 5 -12 13 -27
20 -22 9 165 10 807 7 562 -4 830 -2 819 5 -9 5 -45 24 -79 42 -35 18 -62 37
-61 41 4 15 -71 63 -91 59 -5 -1 -8 2 -8 7 0 10 -91 71 -106 71 -5 0 -2 -5 6
-10 13 -8 13 -10 -1 -10 -9 0 -27 14 -40 30 -13 17 -100 76 -194 132 -93 56
-252 153 -353 215 -100 63 -215 133 -255 157 -39 24 -166 101 -282 171 -659
403 -1048 635 -1063 635 -22 0 -51 -53 -85 -157 -20 -60 -38 -127 -39 -150 -2
-23 -6 -39 -10 -37 -10 6 -21 -81 -13 -105 3 -12 3 -21 -2 -21 -13 0 -15 -221
-3 -333 24 -219 123 -547 211 -696 21 -36 50 -101 45 -101 -8 0 -84 108 -90
128 -4 12 -12 20 -17 16 -5 -3 -8 -1 -7 4 2 5 -35 62 -82 128 -125 174 -168
246 -235 387 -33 69 -65 127 -71 127 -15 0 -112 -174 -266 -480 -161 -320
-182 -366 -172 -381 4 -8 3 -9 -5 -5 -13 8 -65 -99 -56 -115 4 -5 2 -9 -3 -9
-14 0 -64 -118 -56 -131 4 -7 3 -9 -3 -6 -12 8 -26 -20 -17 -34 3 -5 0 -9 -6
-9 -6 0 -9 -4 -6 -9 4 -5 2 -20 -3 -33 -6 -13 -10 -17 -11 -8 0 8 -10 -2 -21
-23 -11 -22 -18 -45 -15 -53 3 -8 2 -13 -3 -10 -10 6 -30 -37 -33 -73 -2 -14
-11 -33 -21 -44 -11 -11 -17 -27 -14 -38 3 -10 2 -17 -3 -14 -10 6 -22 -23
-15 -35 7 -12 -21 -80 -33 -80 -21 0 -155 -373 -146 -404 4 -15 3 -17 -4 -7
-7 10 -15 0 -30 -40 -75 -204 -226 -690 -282 -906 l-10 -42 -73 25 c-293 101
-851 234 -988 236 l-37 0 25 57 c135 305 390 757 601 1066 452 661 1017 1242
1619 1664 70 49 83 74 83 165 0 194 114 572 242 804 38 69 56 91 67 87 8 -3
90 -49 181 -102z m4052 -3254 c-17 -30 -60 -126 -97 -214 -92 -218 -195 -404
-259 -464 l-24 -23 -16 26 c-9 14 -23 37 -31 51 -8 13 -15 29 -15 34 0 5 35
80 77 166 l77 157 155 164 c85 90 156 162 158 160 3 -2 -9 -28 -25 -57z m1197
-4124 c27 -65 101 -137 163 -157 55 -19 58 -33 11 -48 -77 -25 -155 -102 -184
-182 -7 -21 -15 -38 -19 -38 -3 0 -16 25 -29 55 -29 67 -114 149 -172 166 -22
7 -38 17 -36 22 1 5 25 18 52 28 63 24 129 89 157 156 12 29 25 53 28 53 3 0
17 -25 29 -55z"/>
<path d="M4219 4434 c-12 -15 -12 -17 0 -9 11 6 13 3 7 -19 -5 -19 -2 -28 8
-32 8 -3 14 -13 14 -22 -1 -24 6 -46 17 -55 7 -6 6 -10 -2 -13 -16 -7 -5 -34
13 -34 8 0 14 -4 14 -10 0 -5 -8 -10 -17 -10 -14 0 -12 -4 7 -25 20 -21 22
-29 13 -44 -8 -12 -8 -22 -2 -28 6 -6 12 -19 14 -29 2 -11 4 -20 5 -21 7 -8 5
-30 -3 -40 -7 -10 -3 -13 14 -13 18 0 21 -2 10 -9 -19 -12 -23 -54 -4 -47 7 3
13 2 14 -2 4 -40 13 -61 37 -81 15 -13 22 -20 16 -17 -7 3 -15 -1 -18 -10 -9
-22 -8 -24 10 -24 10 0 14 -6 11 -14 -3 -8 1 -17 9 -20 9 -3 12 -10 9 -16 -3
-5 1 -10 9 -10 22 0 20 -17 -1 -23 -10 -3 -5 -5 12 -6 21 -1 26 -4 16 -10 -20
-13 -5 -30 21 -23 14 3 19 2 14 -6 -4 -7 -2 -12 4 -12 6 0 9 -4 5 -9 -3 -5 4
-12 15 -16 11 -4 18 -10 15 -15 -3 -5 2 -15 10 -23 22 -22 19 -27 -17 -28 -21
-1 -26 -3 -13 -6 11 -3 26 -12 33 -21 10 -13 12 -13 12 -1 0 12 2 12 10 -1 6
-9 5 -17 -3 -22 -9 -6 -8 -8 3 -9 8 -1 21 -2 29 -3 22 -2 25 -24 4 -29 -12 -3
-10 -5 8 -6 33 -1 42 -11 28 -28 -9 -10 -8 -13 5 -13 13 0 16 -5 11 -20 -4
-11 -2 -20 4 -20 6 0 11 5 11 12 0 6 7 3 15 -8 13 -18 14 -17 6 11 -5 17 -20
55 -35 86 -14 31 -41 94 -59 140 -19 46 -44 104 -55 129 -11 25 -44 99 -72
165 -29 66 -65 147 -80 180 -15 33 -39 86 -53 117 -19 43 -30 56 -41 52 -9 -3
-16 -1 -16 6 0 6 5 8 12 4 12 -8 10 2 -15 69 -19 52 -31 62 -48 41z"/>
</g>
</svg>
